<svg id="google-4" xmlns="http://www.w3.org/2000/svg" width="22.783" height="22.783" viewBox="0 0 22.783 22.783">
  <path id="Tracé_230" data-name="Tracé 230" d="M276.735,213.9h-9.294a.741.741,0,0,0-.742.742v2.971a.741.741,0,0,0,.742.742h5.235a6.977,6.977,0,0,1-3.005,3.522l2.229,3.864a11.173,11.173,0,0,0,5.693-9.767,7.7,7.7,0,0,0-.127-1.459A.751.751,0,0,0,276.735,213.9Z" transform="translate(-254.811 -204.489)" fill="#167ee6"/>
  <path id="Tracé_231" data-name="Tracé 231" d="M64.26,328.969a6.932,6.932,0,0,1-6-3.469L54.4,327.725A11.381,11.381,0,0,0,69.958,331.9v0l-2.229-3.864a6.873,6.873,0,0,1-3.469.937Z" transform="translate(-52.868 -310.645)" fill="#12b347"/>
  <path id="Tracé_232" data-name="Tracé 232" d="M262.193,381.269v0l-2.229-3.864a6.891,6.891,0,0,1-3.464.937V382.8A11.341,11.341,0,0,0,262.193,381.269Z" transform="translate(-245.109 -360.013)" fill="#0f993e"/>
  <path id="Tracé_233" data-name="Tracé 233" d="M27.459,143.588a6.891,6.891,0,0,1,.937-3.464L24.532,137.9a11.327,11.327,0,0,0,0,11.377l3.864-2.225A6.842,6.842,0,0,1,27.459,143.588Z" transform="translate(-23 -132.197)" fill="#ffd500"/>
  <path id="Tracé_234" data-name="Tracé 234" d="M64.26,25.459a6.9,6.9,0,0,1,4.4,1.581.741.741,0,0,0,1-.044l2.1-2.1a.747.747,0,0,0-.044-1.093A11.354,11.354,0,0,0,54.4,26.7l3.864,2.225A6.932,6.932,0,0,1,64.26,25.459Z" transform="translate(-52.868 -21)" fill="#ff4b26"/>
  <path id="Tracé_235" data-name="Tracé 235" d="M260.9,27.04a.741.741,0,0,0,1-.044l2.1-2.1a.747.747,0,0,0-.044-1.093A11.32,11.32,0,0,0,256.5,21v4.459A6.876,6.876,0,0,1,260.9,27.04Z" transform="translate(-245.109 -21)" fill="#d93f21"/>
</svg>
