<svg xmlns="http://www.w3.org/2000/svg" xmlns:xlink="http://www.w3.org/1999/xlink" width="25" height="25" viewBox="0 0 25 25">
  <defs>
    <clipPath id="clip-path">
      <path id="Tracé_500" data-name="Tracé 500" d="M12.5,0A12.5,12.5,0,1,1,0,12.5,12.5,12.5,0,0,1,12.5,0Z" fill="#0074f6"/>
    </clipPath>
    <linearGradient id="linear-gradient" x1="0.119" y1="0.881" x2="0.83" y2="0.17" gradientUnits="objectBoundingBox">
      <stop offset="0" stop-color="#fee411"/>
      <stop offset="0.052" stop-color="#fedb16"/>
      <stop offset="0.138" stop-color="#fec125"/>
      <stop offset="0.248" stop-color="#fe983d"/>
      <stop offset="0.376" stop-color="#fe5f5e"/>
      <stop offset="0.5" stop-color="#fe2181"/>
      <stop offset="1" stop-color="#9000dc"/>
    </linearGradient>
  </defs>
  <g id="Groupe_1029" data-name="Groupe 1029" transform="translate(-537 -562)">
    <g id="Groupe_de_masques_12" data-name="Groupe de masques 12" transform="translate(537 562)" clip-path="url(#clip-path)">
      <g id="instagram-8" transform="translate(0 0)">
        <ellipse id="Ellipse_64" data-name="Ellipse 64" cx="12.5" cy="12.5" rx="12.5" ry="12.5" transform="translate(0)" fill="url(#linear-gradient)"/>
        <g id="Groupe_1030" data-name="Groupe 1030" transform="translate(5.561 5.556)">
          <path id="Tracé_536" data-name="Tracé 536" d="M20.374,10.771H15.068a4.291,4.291,0,0,0-4.289,4.289v5.306a4.291,4.291,0,0,0,4.289,4.289h5.306a4.291,4.291,0,0,0,4.289-4.289V15.06A4.291,4.291,0,0,0,20.374,10.771Zm2.739,9.6a2.747,2.747,0,0,1-2.744,2.744H15.063a2.747,2.747,0,0,1-2.744-2.744V15.066a2.747,2.747,0,0,1,2.744-2.744h5.306a2.747,2.747,0,0,1,2.744,2.744Z" transform="translate(-10.779 -10.771)" fill="#fff"/>
          <path id="Tracé_537" data-name="Tracé 537" d="M19.345,15.795a3.55,3.55,0,1,0,3.55,3.55A3.556,3.556,0,0,0,19.345,15.795Zm0,5.706A2.156,2.156,0,1,1,21.5,19.345,2.158,2.158,0,0,1,19.345,21.5Z" transform="translate(-12.406 -12.4)" fill="#fff"/>
          <path id="Tracé_28684" data-name="Tracé 28684" d="M.6,0A.6.6,0,1,1,0,.6.6.6,0,0,1,.6,0Z" transform="translate(9.979 2.698) rotate(-9.208)" fill="#fff"/>
        </g>
      </g>
    </g>
  </g>
</svg>
