<svg id="LinkedIn_icon" xmlns="http://www.w3.org/2000/svg" width="24" height="24" viewBox="0 0 24 24">
  <path id="Tracé_28685" data-name="Tracé 28685" d="M2.667,24H21.333A2.667,2.667,0,0,0,24,21.333V2.667A2.667,2.667,0,0,0,21.333,0H2.667A2.667,2.667,0,0,0,0,2.667V21.333A2.667,2.667,0,0,0,2.667,24Z" fill="#007ebb" fill-rule="evenodd"/>
  <path id="Tracé_28686" data-name="Tracé 28686" d="M30,30H25.891V23c0-1.919-.729-2.991-2.248-2.991-1.652,0-2.516,1.116-2.516,2.991v7h-3.96V16.667h3.96v1.8a4.652,4.652,0,0,1,4.02-2.2c2.828,0,4.853,1.727,4.853,5.3ZM12.442,14.921a2.46,2.46,0,1,1,2.441-2.46A2.451,2.451,0,0,1,12.442,14.921ZM10.4,30h4.13V16.667H10.4Z" transform="translate(-8 -8)" fill="#fff" fill-rule="evenodd"/>
</svg>
